<svg width="33" height="33" viewBox="0 0 33 33" fill="none" xmlns="http://www.w3.org/2000/svg">
<rect width="33" height="33" rx="4" fill="white"/>
<path d="M24.95 26C22.8667 26 20.8083 25.546 18.775 24.638C16.7417 23.73 14.8917 22.4423 13.225 20.775C11.5583 19.1077 10.271 17.2577 9.363 15.225C8.455 13.1923 8.00067 11.134 8 9.05C8 8.75 8.1 8.5 8.3 8.3C8.5 8.1 8.75 8 9.05 8H13.1C13.3333 8 13.5417 8.07933 13.725 8.238C13.9083 8.39667 14.0167 8.584 14.05 8.8L14.7 12.3C14.7333 12.5667 14.725 12.7917 14.675 12.975C14.625 13.1583 14.5333 13.3167 14.4 13.45L11.975 15.9C12.3083 16.5167 12.704 17.1123 13.162 17.687C13.62 18.2617 14.1243 18.816 14.675 19.35C15.1917 19.8667 15.7333 20.346 16.3 20.788C16.8667 21.23 17.4667 21.634 18.1 22L20.45 19.65C20.6 19.5 20.796 19.3877 21.038 19.313C21.28 19.2383 21.5173 19.2173 21.75 19.25L25.2 19.95C25.4333 20.0167 25.625 20.1377 25.775 20.313C25.925 20.4883 26 20.684 26 20.9V24.95C26 25.25 25.9 25.5 25.7 25.7C25.5 25.9 25.25 26 24.95 26Z" fill="#EC221F"/>
</svg>
