<svg width="55" height="55" viewBox="0 0 55 55" fill="none" xmlns="http://www.w3.org/2000/svg">
<path d="M27.5 3.4375L6.875 10.3125V30.9375C6.875 42.3296 16.1079 51.5625 27.5 51.5625C38.8921 51.5625 48.125 42.3296 48.125 30.9375V10.3125L27.5 3.4375ZM44.2578 30.9375C44.2578 40.1919 36.7544 47.6953 27.5 47.6953C18.2456 47.6953 10.7422 40.1919 10.7422 30.9375V13.2129L27.5 7.30469L44.2578 13.2129V30.9375Z" fill="white"/>
<path d="M20.3244 25.5182C20.1452 25.3382 19.9322 25.1953 19.6976 25.0978C19.463 25.0003 19.2115 24.9502 18.9574 24.9502C18.7034 24.9502 18.4519 25.0003 18.2173 25.0978C17.9827 25.1953 17.7697 25.3382 17.5905 25.5182C17.4105 25.6974 17.2676 25.9104 17.1701 26.145C17.0726 26.3796 17.0225 26.6311 17.0225 26.8851C17.0225 27.1392 17.0726 27.3907 17.1701 27.6253C17.2676 27.8598 17.4105 28.0729 17.5905 28.2521L24.5407 35.2023L24.6535 35.3151C24.823 35.4849 25.0244 35.6196 25.246 35.7116C25.4677 35.8035 25.7053 35.8508 25.9452 35.8508C26.1852 35.8508 26.4228 35.8035 26.6445 35.7116C26.8661 35.6196 27.0675 35.4849 27.237 35.3151L39.2414 23.3107C39.4112 23.1412 39.546 22.9398 39.6379 22.7181C39.7298 22.4965 39.7771 22.2589 39.7771 22.0189C39.7771 21.779 39.7298 21.5414 39.6379 21.3197C39.546 21.098 39.4112 20.8967 39.2414 20.7272L39.091 20.5768C38.9215 20.4069 38.7201 20.2722 38.4985 20.1803C38.2768 20.0883 38.0392 20.041 37.7992 20.041C37.5593 20.041 37.3217 20.0883 37.1 20.1803C36.8784 20.2722 36.677 20.4069 36.5075 20.5768L25.9425 31.1364L20.3244 25.5182Z" fill="white"/>
</svg>
