<svg width="56" height="55" viewBox="0 0 56 55" fill="none" xmlns="http://www.w3.org/2000/svg">
<rect x="0.501465" width="54.6177" height="54.6177" rx="10" fill="url(#paint0_linear_811_434)"/>
<path d="M17.8889 18.5071C16.2955 18.5071 15 19.8524 15 21.5071V31.2571C15 32.9118 16.2955 34.2571 17.8889 34.2571H17.9069C18.0875 36.3618 19.7892 38.0071 21.8611 38.0071C23.933 38.0071 25.6347 36.3618 25.8153 34.2571H30.5413C30.7219 36.3618 32.4236 38.0071 34.4955 38.0071C36.5764 38.0071 38.2826 36.3477 38.4542 34.2336C39.8851 34.0555 40.9955 32.7899 40.9955 31.2571V26.5086C40.9955 25.8618 40.7924 25.229 40.4177 24.7086L36.8066 19.7071C36.2649 18.9524 35.4073 18.5071 34.5 18.5071H17.8889ZM37.75 26.0071H32.3333V21.5071H34.5L37.75 26.0071ZM17.8889 26.0071V21.5071H22.2222V26.0071H17.8889ZM25.1111 26.0071V21.5071H29.4444V26.0071H25.1111ZM32.6944 33.8821C32.6944 33.3848 32.8847 32.9079 33.2233 32.5563C33.5619 32.2046 34.0211 32.0071 34.5 32.0071C34.9789 32.0071 35.4381 32.2046 35.7767 32.5563C36.1153 32.9079 36.3056 33.3848 36.3056 33.8821C36.3056 34.3794 36.1153 34.8563 35.7767 35.2079C35.4381 35.5595 34.9789 35.7571 34.5 35.7571C34.0211 35.7571 33.5619 35.5595 33.2233 35.2079C32.8847 34.8563 32.6944 34.3794 32.6944 33.8821ZM21.8611 32.0071C22.34 32.0071 22.7992 32.2046 23.1378 32.5563C23.4764 32.9079 23.6667 33.3848 23.6667 33.8821C23.6667 34.3794 23.4764 34.8563 23.1378 35.2079C22.7992 35.5595 22.34 35.7571 21.8611 35.7571C21.3822 35.7571 20.923 35.5595 20.5844 35.2079C20.2458 34.8563 20.0556 34.3794 20.0556 33.8821C20.0556 33.3848 20.2458 32.9079 20.5844 32.5563C20.923 32.2046 21.3822 32.0071 21.8611 32.0071Z" fill="white"/>
<defs>
<linearGradient id="paint0_linear_811_434" x1="44.3032" y1="10.0014" x2="-28.6041" y2="57.3655" gradientUnits="userSpaceOnUse">
<stop stop-color="#EC221F"/>
<stop offset="1" stop-color="#FBF3E4"/>
</linearGradient>
</defs>
</svg>
